<svg width="90" height="58" viewBox="0 0 90 58" fill="none" xmlns="http://www.w3.org/2000/svg">
<path d="M63.7795 44.602C61.5945 43.7945 57.9132 43.7945 56.4169 43.1057C55.3244 42.702 53.5432 42.1557 52.9969 41.467C52.4507 40.7782 52.4507 35.8619 52.4507 35.8619C52.4507 35.8619 53.8044 34.5081 54.3507 33.1306C54.8969 31.6344 55.3007 27.6681 55.3007 27.6681C55.3007 27.6681 56.6544 28.2143 57.0819 25.6256C57.4857 23.298 58.317 22.2055 58.1745 20.5668C57.9132 18.928 57.0819 19.3317 57.0819 19.3317C57.0819 19.3317 58.1745 17.693 58.1745 11.9692C58.1745 6.24537 53.6619 0.236572 45.3493 0.236572C37.0368 0.236572 32.5242 6.10287 32.5242 11.9692C32.5242 17.8355 33.6167 19.3317 33.6167 19.3317C33.6167 19.3317 32.6667 18.928 32.5242 20.5668C32.263 22.2055 33.0705 23.4405 33.6167 25.6256C34.163 28.2143 35.398 27.6681 35.398 27.6681C35.398 27.6681 35.8018 31.6344 36.348 33.1306C36.8943 34.6269 38.248 35.8619 38.248 35.8619C38.248 35.8619 38.248 40.7782 37.7018 41.467C37.1555 42.1557 35.3743 42.702 34.2817 43.1057C32.643 43.652 29.1042 43.7945 26.9192 44.602C24.7342 45.4095 17.9178 48.972 17.9178 57.8308H72.9233C72.7808 48.9483 65.9645 45.4095 63.7795 44.602Z" fill="white"/>
<path d="M22.4066 34.9119C22.4066 34.9119 27.1804 34.7694 28.9617 33.1306C25.9692 28.4993 27.6079 23.0368 26.9192 17.978C26.3729 12.9192 23.4992 9.92664 17.7754 9.92664H17.6329C12.0278 9.92664 9.17778 12.9192 8.48902 17.978C7.80026 23.0368 9.58153 29.0218 6.4465 33.1306C8.34652 34.7694 13.0016 34.7694 13.0016 34.7694C13.0016 34.7694 13.1441 37.6431 12.8591 38.0469C12.4553 38.4506 11.3628 38.9969 10.5315 39.1394C8.75027 39.5432 6.99275 40.0894 5.47274 40.4932C3.97648 40.8969 0.960205 43.9132 0.960205 47.8557H16.8016C17.2053 46.217 20.2216 43.4857 23.0717 41.9894C24.8529 41.0394 26.6104 41.1819 27.9879 40.8969C27.9879 40.8969 28.7955 39.6619 26.2067 39.2582C26.2067 39.2582 22.7867 38.4506 22.3829 37.9044C22.1216 37.6431 22.3829 34.9119 22.3829 34.9119H22.4066ZM68.2683 34.9119C68.2683 34.9119 63.4945 34.7694 61.7133 33.1306C64.7058 28.4993 63.067 23.0368 63.7558 17.978C64.4445 12.9192 67.2946 9.92664 73.0421 9.92664H73.1846C78.7897 9.92664 81.6397 12.9192 82.3285 17.978C83.0172 23.0368 81.2359 29.0218 84.371 33.1306C82.471 34.7694 77.8159 34.7694 77.8159 34.7694C77.8159 34.7694 77.6734 37.6431 77.9584 38.0469C78.3622 38.4506 79.4547 38.9969 80.2859 39.1394C82.0672 39.5432 83.8247 40.0894 85.3447 40.4932C86.841 41.0394 89.8573 43.9132 89.8573 47.8557H73.8971C73.4934 46.217 70.4771 43.4857 67.6271 41.9894C65.8458 41.0394 64.0883 41.1819 62.7108 40.8969C62.7108 40.8969 61.9033 39.6619 64.492 39.2582C64.492 39.2582 67.9121 38.4506 68.3158 37.9044C68.5771 37.6431 68.3158 34.9119 68.3158 34.9119H68.2683Z" fill="white"/>
</svg>
