<svg width="105" height="344" viewBox="0 0 105 344" fill="none" xmlns="http://www.w3.org/2000/svg">
<path d="M104.084 292.188C104.084 320.798 80.8802 344 52.2374 344C23.5946 344 0.366943 320.798 0.366943 292.188C0.366943 268.133 16.7784 247.944 39.0086 242.108C43.2361 240.993 47.6774 240.4 52.2374 240.4C56.7975 240.4 61.215 240.993 65.4425 242.108C87.6727 247.921 104.084 268.133 104.084 292.188Z" fill="#002851"/>
<path d="M65.6564 234.992C61.4289 233.877 57.0113 233.284 52.4513 233.284C47.8913 233.284 43.45 233.877 39.2224 234.992L43.6162 9.26543C43.7112 4.44961 47.63 0.606445 52.4513 0.606445C54.8501 0.606445 57.0351 1.57911 58.6263 3.12112C60.2176 4.68685 61.2151 6.84566 61.2626 9.26543L65.6564 234.992Z" fill="#002851"/>
<path d="M51.4536 265.571C66.1313 265.571 74.1114 276.247 74.1114 289.698C74.1114 291.192 73.8026 293.992 73.8026 293.992H38.5573C39.3648 303.362 46.1336 308.154 53.8287 308.154C62.1175 308.154 68.6013 302.769 68.6013 302.769L73.4938 311.737C73.4938 311.737 65.7038 318.83 52.9262 318.83C36.0635 318.83 25.5659 306.66 25.5659 292.212C25.5659 276.555 36.1585 265.595 51.4299 265.595L51.4536 265.571ZM61.0487 286.519C60.8587 279.544 56.5599 275.345 51.1686 275.345C44.6848 275.345 40.0773 279.829 38.8898 286.519H61.0487Z" fill="#F6F1FF"/>
</svg>
