<svg width="122" height="121" viewBox="0 0 122 121" fill="none" xmlns="http://www.w3.org/2000/svg">
<path d="M60.6667 120.704C94.036 120.704 121.087 93.6833 121.087 60.3519C121.087 27.0205 94.036 0 60.6667 0C27.2973 0 0.246094 27.0205 0.246094 60.3519C0.246094 93.6833 27.2973 120.704 60.6667 120.704Z" fill="#4E5873"/>
<path d="M79.0257 73.5181C76.8407 72.7115 73.1594 72.7115 71.6631 72.0236C70.5706 71.6203 68.7894 71.0746 68.2431 70.3867C67.6969 69.6987 67.6969 64.788 67.6969 64.788C67.6969 64.788 69.0506 63.4357 69.5969 62.0598C70.1431 60.5652 70.5469 56.6035 70.5469 56.6035C70.5469 56.6035 71.9007 57.1491 72.3282 54.5633C72.7319 52.2384 73.5632 51.1471 73.4207 49.5102C73.1594 47.8733 72.3282 48.2766 72.3282 48.2766C72.3282 48.2766 73.4207 46.6397 73.4207 40.9224C73.4207 35.2051 68.9081 29.2031 60.5956 29.2031C52.283 29.2031 47.7704 35.0628 47.7704 40.9224C47.7704 46.782 48.863 48.2766 48.863 48.2766C48.863 48.2766 47.9129 47.8733 47.7704 49.5102C47.5092 51.1471 48.3167 52.3807 48.863 54.5633C49.4092 57.1491 50.6442 56.6035 50.6442 56.6035C50.6442 56.6035 51.048 60.5652 51.5942 62.0598C52.1405 63.5544 53.4942 64.788 53.4942 64.788C53.4942 64.788 53.4943 69.6987 52.948 70.3867C52.4017 71.0746 50.6205 71.6203 49.528 72.0236C47.8892 72.5692 44.3504 72.7115 42.1654 73.5181C39.9804 74.3247 33.1641 77.8832 33.1641 86.732H88.1696C88.0271 77.8595 81.2107 74.3247 79.0257 73.5181Z" fill="#F6F1FF"/>
</svg>
