<svg width="16" height="16" viewBox="0 0 16 16" fill="none" xmlns="http://www.w3.org/2000/svg">
<path fill-rule="evenodd" clip-rule="evenodd" d="M14.4125 3.09287e-07L5.50417 7.07581e-07C5.07268 7.26873e-07 4.79245 0.3488 4.79245 0.780009L4.79245 0.802409C4.79245 1.24242 5.06309 1.60003 5.50339 1.60003L12.3472 1.60003C12.7043 1.60003 12.8818 2.03204 12.6296 2.28404L0.231849 14.6523C-0.0771622 14.9603 -0.0771434 15.4611 0.231068 15.7691C0.54008 16.0771 1.04008 16.0771 1.34749 15.7683L13.7226 3.36886C13.9748 3.11606 14.3988 3.29446 14.3988 3.65127L14.3988 10.4146C14.3988 10.8498 14.7657 11.2002 15.2019 11.2002L15.2242 11.2002C15.6605 11.2002 16 10.8498 16 10.4146L16 1.60323C16 0.719213 15.2971 2.69736e-07 14.4125 3.09287e-07Z" fill="#5189AC"/>
</svg>
