<svg width="42" height="30" viewBox="0 0 42 30" fill="none" xmlns="http://www.w3.org/2000/svg">
<path fill-rule="evenodd" clip-rule="evenodd" d="M40.8187 13.0679L28.924 1.17324C28.3478 0.597094 27.5079 0.688641 26.9322 1.2644L26.9022 1.29431C26.3147 1.88182 26.1986 2.7207 26.7865 3.3086L35.9247 12.4467C36.4014 12.9235 36.0616 13.7374 35.3885 13.7372L2.32003 13.6976C1.49617 13.6962 0.827501 14.3649 0.827779 15.1877C0.829125 16.0116 1.49674 16.6792 2.31953 16.6773L35.3994 16.645C36.0736 16.6442 36.4016 17.4485 35.9251 17.925L26.8946 26.9555C26.3135 27.5366 26.3354 28.4944 26.918 29.0769L26.9477 29.1066C27.5302 29.6892 28.4514 29.6746 29.0325 29.0935L40.7977 17.3283C41.9781 16.148 41.9998 14.2491 40.8187 13.0679Z" fill="#F6F1FF" fill-opacity="0.85"/>
</svg>
