<svg width="26" height="44" viewBox="0 0 26 44" fill="none" xmlns="http://www.w3.org/2000/svg">
<path d="M16.9621 37.287H8.57906C8.10612 37.287 7.72266 36.9036 7.72266 36.4306C7.72266 35.9577 8.10612 35.5742 8.57906 35.5742H16.9621C17.435 35.5742 17.8185 35.9577 17.8185 36.4306C17.8185 36.9036 17.435 37.287 16.9621 37.287Z" fill="#F6F1FF"/>
<path d="M16.9621 39.9745H8.57906C8.10612 39.9745 7.72266 39.5911 7.72266 39.1181C7.72266 38.6452 8.10612 38.2617 8.57906 38.2617H16.9621C17.435 38.2617 17.8185 38.6452 17.8185 39.1181C17.8185 39.5911 17.435 39.9745 16.9621 39.9745Z" fill="#F6F1FF"/>
<path d="M10.7387 40.9883C10.5312 40.9883 10.3737 41.1769 10.412 41.3809C10.6186 42.4843 11.5854 43.3197 12.7486 43.3197C13.9118 43.3197 14.8786 42.4843 15.0852 41.3809C15.1235 41.1769 14.966 40.9883 14.7584 40.9883H10.7387Z" fill="#F6F1FF"/>
<path d="M16.0763 34.4935H9.34524C8.179 34.4935 7.19733 33.5819 7.10991 32.4187C6.82461 28.624 5.27644 26.2194 3.63676 23.6737C1.8488 20.8975 0 18.0271 0 13.3852C0 7.11737 4.48344 1.84195 10.6613 0.842389C12.1057 0.608732 13.6277 0.627138 15.0634 0.895051C21.0654 2.01732 25.4215 7.27024 25.4215 13.3852C25.4215 18.0271 23.5727 20.898 21.7842 23.6737C20.1446 26.2194 18.5959 28.624 18.3111 32.4187C18.2237 33.5824 17.2415 34.4935 16.0758 34.4935H16.0763ZM12.709 2.33329C12.1092 2.33329 11.5105 2.38033 10.9261 2.47492C5.55407 3.34461 1.65451 7.93235 1.65451 13.3847C1.65451 17.5399 3.29318 20.084 5.02796 22.778C6.70701 25.385 8.44333 28.081 8.75982 32.295C8.78283 32.6002 9.04 32.8395 9.34524 32.8395H16.0763C16.3866 32.8395 16.6387 32.6054 16.6617 32.295C16.9782 28.0815 18.715 25.3855 20.3941 22.778C22.1289 20.0845 23.7675 17.5404 23.7675 13.3847C23.7675 8.0658 19.9794 3.49697 14.7597 2.52093C14.0899 2.39567 13.3992 2.33329 12.7085 2.33329H12.709Z" fill="#F6F1FF"/>
<path d="M9 33.5H17L18 29L20.5 23.5L23.5 18.5L24.5 12L23 7.5L18.5 3.5L14 1.5L8 2L4 5L1 9.5V16.5L4 22.5L7.5 29L9 33.5Z" fill="#F6F1FF"/>
<path d="M6.55288 21.3493C6.29724 21.3493 6.04568 21.2312 5.88361 21.0093C1.29177 14.7016 4.67647 8.78196 4.82269 8.53297C5.05431 8.13928 5.56099 8.00788 5.95519 8.23898C6.34836 8.47008 6.48028 8.97625 6.2502 9.36943C6.1234 9.58774 3.28527 14.629 7.22112 20.0353C7.49006 20.4045 7.40877 20.9219 7.03962 21.1908C6.89237 21.2977 6.72211 21.3493 6.55339 21.3493H6.55288Z" fill="#002851" stroke="#002851"/>
</svg>
