<svg width="43" height="43" viewBox="0 0 43 43" fill="none" xmlns="http://www.w3.org/2000/svg">
<path d="M21.3589 0.769531C9.76091 0.769531 0.358887 10.1716 0.358887 21.7695C0.358887 33.3675 9.76091 42.7695 21.3589 42.7695C32.9569 42.7695 42.3589 33.3675 42.3589 21.7695C42.3589 10.1716 32.9569 0.769531 21.3589 0.769531ZM24.2993 18.2094C25.2136 18.2094 25.9348 18.9872 25.8657 19.8989C25.8037 20.7181 25.1209 21.3512 24.2993 21.3512H24.2048C23.2809 21.3512 22.5319 22.1001 22.5319 23.024V30.227C22.5319 31.3505 21.6211 32.2613 20.4976 32.2613C19.374 32.2613 18.4632 31.3505 18.4632 30.227V22.4381C18.4632 21.8378 17.9766 21.3512 17.3763 21.3512C16.776 21.3512 16.2894 20.8645 16.2894 20.2643V19.2963C16.2894 18.696 16.776 18.2094 17.3763 18.2094C17.9766 18.2094 18.4632 17.7227 18.4632 17.1225V16.1012C18.4632 15.1742 18.4878 13.7387 19.1604 12.8445C19.8741 11.9012 20.8503 11.2613 22.5319 11.2613C23.6043 11.2613 24.4329 11.3216 25.0442 11.3951C25.8478 11.4916 26.3216 12.2406 26.1873 13.0386L26.173 13.1236C26.0163 14.0538 25.0749 14.6082 24.1315 14.6082C23.2866 14.6082 22.5319 14.9117 22.5319 15.7566V16.5439C22.5319 17.4637 23.2776 18.2094 24.1974 18.2094H24.2993Z" fill="#F6F1FF"/>
</svg>
