<svg width="34" height="46" viewBox="0 0 34 46" fill="none" xmlns="http://www.w3.org/2000/svg">
<path d="M30.2361 17.4713V11.1627C30.2361 5.0076 25.3428 0 19.3282 0H14.5466C8.53144 0 3.63812 5.0076 3.63812 11.1627V17.4934C1.57483 17.8711 0 19.6504 0 21.7731V41.6453C0 44.0403 2.00449 46 4.45377 46H29.5462C31.9961 46 34 44.0403 34 41.6453V21.7731C34 19.6074 32.3611 17.7983 30.2361 17.4713ZM19.0703 32.3271V37.2905C19.0703 38.0999 18.3926 38.7627 17.5647 38.7627H17.1886C16.3608 38.7627 15.6831 38.1005 15.6831 37.2905V32.4022C13.9959 31.772 12.7977 30.176 12.7977 28.3052C12.7977 25.8835 14.8057 23.9197 17.2829 23.9197C19.7602 23.9197 21.7682 25.8829 21.7682 28.3052C21.7682 30.1055 20.6579 31.6522 19.0709 32.3271H19.0703ZM26.591 17.4184H7.2838V11.1627C7.2838 7.03659 10.5417 3.67977 14.5461 3.67977H19.3276C23.3319 3.67977 26.5899 7.03659 26.5899 11.1627V17.4184H26.591Z" fill="white"/>
</svg>
