<svg width="31" height="32" viewBox="0 0 31 32" fill="none" xmlns="http://www.w3.org/2000/svg">
<path d="M13.2149 27.0651C10.6013 27.0651 8.0463 26.2901 5.87312 24.8381C3.69994 23.386 2.00615 21.322 1.00594 18.9073C0.005725 16.4927 -0.255976 13.8355 0.253931 11.2721C0.763837 8.70865 2.02243 6.35397 3.87057 4.50583C5.71871 2.65769 8.07339 1.39909 10.6368 0.889184C13.2002 0.379278 15.8574 0.640979 18.2721 1.64119C20.6867 2.6414 22.7508 4.33519 24.2028 6.50837C25.6549 8.68155 26.4299 11.2365 26.4299 13.8502C26.4299 15.5855 26.088 17.304 25.4239 18.9073C24.7598 20.5107 23.7864 21.9675 22.5593 23.1945C21.3322 24.4216 19.8754 25.3951 18.2721 26.0592C16.6687 26.7233 14.9503 27.0651 13.2149 27.0651ZM13.2149 3.28526C11.1323 3.28526 9.09651 3.90284 7.36488 5.05987C5.63327 6.21689 4.28362 7.86144 3.48666 9.7855C2.68967 11.7096 2.48115 13.8267 2.88744 15.8693C3.29373 17.9119 4.29661 19.7881 5.76922 21.2607C7.24185 22.7333 9.11808 23.7363 11.1607 24.1426C13.2032 24.5489 15.3204 24.3404 17.2445 23.5434C19.1685 22.7463 20.8131 21.3967 21.9701 19.6651C23.1272 17.9335 23.7448 15.8977 23.7448 13.8151C23.7448 11.0224 22.6355 8.34411 20.6606 6.36938C18.6859 4.39465 16.0076 3.28526 13.2149 3.28526Z" fill="#F6F1FF"/>
<path d="M29.4133 31.3645C29.2404 31.3652 29.069 31.3315 28.9093 31.2652C28.7496 31.199 28.6046 31.1015 28.4832 30.9784L21.2351 23.7304C21.0026 23.4809 20.8761 23.1507 20.882 22.8098C20.888 22.4688 21.0263 22.1436 21.2674 21.9023C21.5086 21.6611 21.8339 21.523 22.1749 21.517C22.5159 21.5111 22.8458 21.6376 23.0954 21.8701L30.3434 29.1182C30.5898 29.3649 30.7283 29.6994 30.7283 30.0483C30.7283 30.397 30.5898 30.7315 30.3434 30.9784C30.222 31.1015 30.077 31.199 29.9173 31.2652C29.7576 31.3315 29.5862 31.3652 29.4133 31.3645Z" fill="#F6F1FF"/>
</svg>
