<svg width="43" height="43" viewBox="0 0 43 43" fill="none" xmlns="http://www.w3.org/2000/svg">
<path d="M21.3589 0.769531C9.76091 0.769531 0.358887 10.1716 0.358887 21.7695C0.358887 33.3675 9.76091 42.7695 21.3589 42.7695C32.9569 42.7695 42.3589 33.3675 42.3589 21.7695C42.3589 10.1716 32.9569 0.769531 21.3589 0.769531ZM30.0783 18.248C29.8724 18.4131 29.7499 18.6633 29.7506 18.9273C29.7507 18.9723 29.7507 19.0174 29.7507 19.0625C29.7507 24.7637 25.4112 31.3426 17.4706 31.3426C15.4052 31.3426 13.4577 30.8297 11.7531 29.9288C11.5305 29.8112 11.6408 29.4641 11.8925 29.4641C12.7156 29.4641 13.5129 29.3494 14.2686 29.1351C15.3503 28.8284 15.0226 27.1226 14.2375 26.3177C13.9644 26.0376 13.7293 25.7204 13.5408 25.3745C13.364 25.0499 13.6639 24.698 14.0335 24.698C14.3311 24.698 14.3509 24.3011 14.0851 24.1671C12.6762 23.4569 11.712 21.995 11.712 20.3094C11.712 20.2872 11.7358 20.2732 11.7553 20.2836C11.9345 20.3795 12.1213 20.4638 12.3145 20.5351C12.6852 20.6719 12.8997 20.1764 12.6569 19.8646C12.0856 19.1309 11.7448 18.2064 11.7448 17.2086C11.7448 16.1096 13.0807 15.9471 13.9189 16.6577C15.6713 18.1432 17.8418 19.143 20.2304 19.4568C20.723 19.5216 21.1046 19.059 21.1046 18.5621C21.1046 16.1832 23.0405 14.2473 25.4194 14.2473C26.4741 14.2473 27.4455 14.6279 28.197 15.2575C28.4413 15.4622 28.7603 15.5745 29.0688 15.4943C29.4974 15.3829 29.9124 15.2407 30.3124 15.0686C30.6716 14.9141 31.045 15.241 30.8336 15.5698C30.7424 15.7116 30.6431 15.8476 30.5365 15.9774C30.319 16.2419 30.554 16.738 30.882 16.6397C31.1861 16.5485 31.4422 16.8927 31.2349 17.1331C30.8851 17.5387 30.4977 17.9115 30.0783 18.248Z" fill="#F6F1FF"/>
</svg>
