<svg width="43" height="43" viewBox="0 0 43 43" fill="none" xmlns="http://www.w3.org/2000/svg">
<path d="M18.3591 25.4692L25.2921 21.4887L18.3591 17.5083V25.4692Z" fill="#F6F1FF"/>
<path d="M20.7113 0.769531C9.27276 0.769531 0 10.0423 0 21.4808V21.4808C0 32.9193 9.27275 42.1921 20.7113 42.1921H21.6476C33.0862 42.1921 42.3589 32.9193 42.3589 21.4808V21.4808C42.3589 10.0423 33.0862 0.769531 21.6476 0.769531H20.7113ZM31.7692 25.1862C31.7692 28.7539 28.1209 28.754 28.1207 28.754C28.1207 28.754 28.1207 28.754 28.1207 28.754H14.2382C10.5898 28.754 10.5897 25.1862 10.5897 25.1862C10.5897 25.1862 10.5897 25.1862 10.5897 25.1862V17.7835C10.5897 14.2158 14.238 14.2157 14.2382 14.2157C14.2382 14.2157 14.2382 14.2157 14.2382 14.2157H28.1207C31.7692 14.2157 31.7692 17.7835 31.7692 17.7835C31.7692 17.7835 31.7692 17.7835 31.7692 17.7835V25.1862Z" fill="#F6F1FF"/>
</svg>
