<svg width="428" height="111" viewBox="0 0 428 111" fill="none" xmlns="http://www.w3.org/2000/svg">
<path d="M109.358 99.5625V87.2177H115.366C115.618 87.2177 115.898 87.2287 116.205 87.2506C116.513 87.2725 116.82 87.3329 117.127 87.4317C117.445 87.5304 117.753 87.684 118.049 87.8925C118.345 88.0901 118.608 88.3644 118.839 88.7155C119.069 89.0667 119.25 89.5111 119.382 90.0488C119.525 90.5755 119.596 91.2174 119.596 91.9746V94.9208C119.596 95.1293 119.585 95.3872 119.563 95.6945C119.541 96.0017 119.486 96.3254 119.399 96.6656C119.322 97.0058 119.201 97.3514 119.036 97.7025C118.872 98.0427 118.641 98.3555 118.345 98.6408C118.06 98.9151 117.698 99.14 117.259 99.3156C116.831 99.4802 116.31 99.5625 115.695 99.5625H109.358ZM110.757 98.328H115.366C115.98 98.328 116.469 98.2402 116.831 98.0647C117.204 97.8891 117.489 97.6422 117.687 97.324C117.884 97.0058 118.016 96.6217 118.082 96.1718C118.148 95.7219 118.186 95.2226 118.197 94.674V91.4314C118.197 91.2558 118.17 91.0034 118.115 90.6742C118.071 90.345 117.956 90.0158 117.769 89.6866C117.593 89.3575 117.336 89.0721 116.995 88.8307C116.655 88.5784 116.189 88.4522 115.596 88.4522H110.757V98.328ZM124.721 98.6078C125.05 98.6078 125.369 98.5969 125.676 98.5749C125.994 98.553 126.274 98.4926 126.515 98.3939C126.768 98.2951 126.965 98.136 127.108 97.9165C127.262 97.6971 127.338 97.3898 127.338 96.9948C127.338 96.5888 127.278 96.276 127.157 96.0566C127.037 95.8371 126.866 95.678 126.647 95.5792C126.428 95.4805 126.153 95.4256 125.824 95.4146C125.495 95.3927 125.127 95.3817 124.721 95.3817C124.337 95.3817 124.008 95.3982 123.734 95.4311C123.459 95.453 123.234 95.5134 123.059 95.6122C122.883 95.7109 122.752 95.8591 122.664 96.0566C122.587 96.2541 122.549 96.5284 122.549 96.8796C122.549 97.2965 122.592 97.6202 122.68 97.8507C122.768 98.0811 122.9 98.2512 123.075 98.3609C123.251 98.4707 123.476 98.542 123.75 98.5749C124.024 98.5969 124.348 98.6078 124.721 98.6078ZM128.672 99.5625H127.371V98.6737L127.338 98.6408C127.218 98.8931 127.048 99.0907 126.828 99.2333C126.62 99.365 126.389 99.4637 126.137 99.5296C125.884 99.5954 125.616 99.6338 125.33 99.6448C125.045 99.6558 124.765 99.6613 124.491 99.6613C124.008 99.6613 123.564 99.6283 123.158 99.5625C122.752 99.5076 122.4 99.3869 122.104 99.2004C121.819 99.0138 121.594 98.7505 121.429 98.4103C121.276 98.0592 121.199 97.6038 121.199 97.0442C121.199 96.4516 121.27 95.9743 121.413 95.6122C121.566 95.25 121.786 94.9757 122.071 94.7892C122.367 94.6026 122.724 94.4819 123.141 94.4271C123.558 94.3612 124.035 94.3283 124.573 94.3283C124.782 94.3283 125.034 94.3393 125.33 94.3612C125.627 94.3722 125.912 94.4106 126.186 94.4764C126.46 94.5313 126.702 94.6191 126.91 94.7398C127.119 94.8495 127.245 95.0031 127.289 95.2007H127.371V93.6041C127.371 93.209 127.316 92.8963 127.207 92.6659C127.108 92.4354 126.96 92.2653 126.762 92.1556C126.565 92.0349 126.323 91.9581 126.038 91.9252C125.753 91.8923 125.429 91.8758 125.067 91.8758C124.815 91.8758 124.551 91.8813 124.277 91.8923C124.013 91.9032 123.772 91.9471 123.553 92.0239C123.333 92.1007 123.152 92.2214 123.009 92.386C122.878 92.5397 122.812 92.7646 122.812 93.0609V93.3572H121.462V93.1761C121.462 92.6165 121.55 92.183 121.726 91.8758C121.912 91.5576 122.159 91.3216 122.466 91.168C122.784 91.0034 123.152 90.9047 123.569 90.8717C123.986 90.8388 124.436 90.8224 124.919 90.8224C125.456 90.8224 125.956 90.8498 126.417 90.9047C126.877 90.9486 127.272 91.0693 127.602 91.2668C127.942 91.4533 128.205 91.7386 128.392 92.1227C128.578 92.4958 128.672 93.0115 128.672 93.6699V99.5625ZM137.746 92.8469V93.1761H136.396V92.8469C136.396 92.6275 136.352 92.4629 136.265 92.3531C136.188 92.2324 136.062 92.1446 135.886 92.0898C135.721 92.0349 135.513 92.002 135.261 91.991C135.008 91.98 134.712 91.9746 134.372 91.9746C133.966 91.9746 133.609 91.98 133.302 91.991C133.006 92.002 132.753 92.0404 132.545 92.1062C132.347 92.1721 132.199 92.2763 132.1 92.419C132.002 92.5616 131.952 92.7646 131.952 93.028C131.952 93.412 131.98 93.7028 132.035 93.9003C132.1 94.0979 132.199 94.2405 132.331 94.3283C132.473 94.4161 132.654 94.4709 132.874 94.4929C133.104 94.5039 133.39 94.5148 133.73 94.5258C134.289 94.5587 134.822 94.5807 135.326 94.5917C135.842 94.6026 136.292 94.6794 136.676 94.8221C137.071 94.9647 137.384 95.2116 137.614 95.5628C137.856 95.9029 137.976 96.4242 137.976 97.1265C137.976 97.741 137.878 98.2183 137.68 98.5585C137.483 98.8986 137.219 99.151 136.89 99.3156C136.561 99.4802 136.177 99.579 135.738 99.6119C135.31 99.6448 134.855 99.6613 134.372 99.6613C133.9 99.6613 133.434 99.6448 132.973 99.6119C132.523 99.579 132.117 99.4967 131.755 99.365C131.393 99.2333 131.096 99.0358 130.866 98.7724C130.646 98.4981 130.537 98.1195 130.537 97.6367V96.8302H131.886V97.505C131.886 97.7135 131.919 97.8836 131.985 98.0153C132.062 98.147 132.194 98.2512 132.38 98.328C132.578 98.3939 132.836 98.4432 133.154 98.4762C133.472 98.4981 133.878 98.5091 134.372 98.5091C134.591 98.5091 134.833 98.5146 135.096 98.5255C135.359 98.5255 135.601 98.4926 135.82 98.4268C136.051 98.35 136.243 98.2183 136.396 98.0317C136.55 97.8452 136.627 97.5599 136.627 97.1758C136.627 96.7698 136.583 96.4736 136.495 96.287C136.407 96.1005 136.27 95.9743 136.084 95.9084C135.908 95.8316 135.678 95.7932 135.392 95.7932C135.107 95.7932 134.767 95.7822 134.372 95.7603C133.9 95.7274 133.439 95.6999 132.989 95.678C132.539 95.6561 132.133 95.5792 131.771 95.4476C131.42 95.3049 131.135 95.08 130.915 94.7727C130.707 94.4545 130.603 93.9881 130.603 93.3736C130.603 92.7482 130.69 92.2653 130.866 91.9252C131.041 91.574 131.288 91.3216 131.607 91.168C131.936 91.0034 132.331 90.9047 132.792 90.8717C133.264 90.8388 133.79 90.8224 134.372 90.8224C134.745 90.8224 135.129 90.8388 135.524 90.8717C135.93 90.8937 136.298 90.9705 136.627 91.1022C136.956 91.2339 137.225 91.4369 137.433 91.7112C137.642 91.9746 137.746 92.3531 137.746 92.8469ZM148.985 87.1189H150.648C151.416 87.1299 152.058 87.2067 152.574 87.3494C153.089 87.492 153.501 87.7279 153.808 88.0571C154.115 88.3754 154.335 88.7978 154.466 89.3245C154.598 89.8512 154.664 90.4987 154.664 91.2668V95.6615C154.664 96.3858 154.593 97.0058 154.45 97.5215C154.307 98.0263 154.077 98.4378 153.759 98.756C153.451 99.0742 153.04 99.3046 152.524 99.4473C152.008 99.5899 151.383 99.6613 150.648 99.6613H148.985C148.239 99.6613 147.608 99.5899 147.092 99.4473C146.588 99.3046 146.176 99.0742 145.858 98.756C145.551 98.4378 145.326 98.0263 145.183 97.5215C145.041 97.0058 144.969 96.3858 144.969 95.6615V91.2668C144.969 90.4987 145.035 89.8512 145.167 89.3245C145.298 88.7978 145.518 88.3754 145.825 88.0571C146.132 87.7279 146.544 87.492 147.06 87.3494C147.575 87.2067 148.217 87.1299 148.985 87.1189ZM150.648 88.3534H148.985C148.47 88.3534 148.042 88.3918 147.701 88.4686C147.361 88.5454 147.092 88.6936 146.895 88.913C146.697 89.1215 146.56 89.4178 146.483 89.8019C146.407 90.175 146.368 90.6633 146.368 91.2668V95.6615C146.368 96.276 146.418 96.7643 146.516 97.1265C146.626 97.4886 146.785 97.7684 146.994 97.9659C147.213 98.1524 147.488 98.2786 147.817 98.3445C148.146 98.3993 148.535 98.4268 148.985 98.4268H150.648C151.098 98.4268 151.487 98.3993 151.816 98.3445C152.146 98.2786 152.414 98.1524 152.623 97.9659C152.842 97.7684 153.002 97.4886 153.1 97.1265C153.21 96.7643 153.265 96.276 153.265 95.6615V91.2668C153.265 90.6633 153.226 90.175 153.15 89.8019C153.073 89.4178 152.936 89.1215 152.738 88.913C152.541 88.6936 152.272 88.5454 151.932 88.4686C151.591 88.3918 151.164 88.3534 150.648 88.3534ZM157.773 90.9211V91.9746H157.806C157.905 91.7112 158.053 91.5082 158.251 91.3655C158.448 91.2119 158.668 91.0967 158.909 91.0199C159.161 90.9321 159.419 90.8772 159.683 90.8553C159.957 90.8333 160.22 90.8224 160.473 90.8224C161.032 90.8224 161.515 90.8663 161.921 90.954C162.338 91.0418 162.678 91.2009 162.942 91.4314C163.216 91.6508 163.419 91.9526 163.551 92.3367C163.682 92.7207 163.743 93.2145 163.732 93.818V99.5625H162.431V93.7193C162.431 93.3243 162.393 93.006 162.316 92.7646C162.239 92.5232 162.113 92.3367 161.938 92.205C161.773 92.0733 161.559 91.9855 161.296 91.9416C161.032 91.8977 160.719 91.8758 160.357 91.8758C159.831 91.8758 159.397 91.9197 159.057 92.0075C158.717 92.0953 158.454 92.2434 158.267 92.4519C158.08 92.6604 157.949 92.9347 157.872 93.2749C157.806 93.615 157.773 94.032 157.773 94.5258V99.5625H156.473V90.9211H157.773ZM167.305 87.2177V99.5625H166.004V87.2177H167.305ZM170.825 90.9211V99.5625H169.525V90.9211H170.825ZM170.825 87.2177V88.6497H169.525V87.2177H170.825ZM174.378 90.9211V91.9746H174.411C174.509 91.7112 174.657 91.5082 174.855 91.3655C175.052 91.2119 175.272 91.0967 175.513 91.0199C175.766 90.9321 176.024 90.8772 176.287 90.8553C176.561 90.8333 176.825 90.8224 177.077 90.8224C177.637 90.8224 178.119 90.8663 178.525 90.954C178.942 91.0418 179.283 91.2009 179.546 91.4314C179.82 91.6508 180.023 91.9526 180.155 92.3367C180.287 92.7207 180.347 93.2145 180.336 93.818V99.5625H179.036V93.7193C179.036 93.3243 178.997 93.006 178.921 92.7646C178.844 92.5232 178.718 92.3367 178.542 92.205C178.377 92.0733 178.163 91.9855 177.9 91.9416C177.637 91.8977 177.324 91.8758 176.962 91.8758C176.435 91.8758 176.002 91.9197 175.661 92.0075C175.321 92.0953 175.058 92.2434 174.871 92.4519C174.685 92.6604 174.553 92.9347 174.476 93.2749C174.411 93.615 174.378 94.032 174.378 94.5258V99.5625H173.077V90.9211H174.378ZM188.584 96.9454H189.917V97.2581C189.917 97.8287 189.813 98.2786 189.604 98.6078C189.407 98.9261 189.138 99.162 188.798 99.3156C188.457 99.4692 188.062 99.5625 187.613 99.5954C187.174 99.6393 186.713 99.6613 186.23 99.6613C185.385 99.6613 184.705 99.5899 184.189 99.4473C183.684 99.2937 183.295 99.0468 183.02 98.7066C182.746 98.3555 182.565 97.9001 182.477 97.3404C182.389 96.7698 182.345 96.073 182.345 95.25C182.345 94.3502 182.4 93.615 182.51 93.0444C182.631 92.4738 182.834 92.0239 183.119 91.6947C183.415 91.3655 183.81 91.1406 184.304 91.0199C184.809 90.8882 185.451 90.8224 186.23 90.8224C186.932 90.8224 187.519 90.8717 187.991 90.9705C188.463 91.0693 188.842 91.2613 189.127 91.5466C189.412 91.8209 189.615 92.2105 189.736 92.7152C189.857 93.209 189.917 93.8565 189.917 94.6575V95.5299H183.695C183.695 96.2102 183.717 96.7534 183.761 97.1594C183.805 97.5654 183.909 97.8781 184.074 98.0976C184.249 98.3061 184.507 98.4432 184.847 98.5091C185.187 98.5749 185.648 98.6078 186.23 98.6078C186.669 98.6078 187.036 98.5969 187.333 98.5749C187.64 98.553 187.887 98.4981 188.073 98.4103C188.26 98.3116 188.392 98.1744 188.468 97.9988C188.545 97.8233 188.584 97.5818 188.584 97.2746V96.9454ZM183.695 94.4764H188.567C188.545 93.8619 188.501 93.3846 188.436 93.0444C188.381 92.6933 188.271 92.4299 188.106 92.2544C187.942 92.0788 187.711 91.9746 187.415 91.9416C187.119 91.8977 186.724 91.8758 186.23 91.8758C185.637 91.8758 185.177 91.9197 184.847 92.0075C184.529 92.0843 184.288 92.2269 184.123 92.4354C183.958 92.6329 183.849 92.9018 183.794 93.242C183.75 93.5711 183.717 93.9826 183.695 94.4764ZM190.796 94.4435H195.092V95.678H190.796V94.4435ZM208.388 88.2711L203.729 99.5625H202.347L197.672 88.2711H197.639V99.5625H196.24V87.2177H198.66L203.022 97.7848L207.4 87.2177H209.82V99.5625H208.421V88.2711H208.388ZM215.298 98.6078C215.627 98.6078 215.946 98.5969 216.253 98.5749C216.571 98.553 216.851 98.4926 217.092 98.3939C217.345 98.2951 217.542 98.136 217.685 97.9165C217.838 97.6971 217.915 97.3898 217.915 96.9948C217.915 96.5888 217.855 96.276 217.734 96.0566C217.613 95.8371 217.443 95.678 217.224 95.5792C217.004 95.4805 216.73 95.4256 216.401 95.4146C216.072 95.3927 215.704 95.3817 215.298 95.3817C214.914 95.3817 214.585 95.3982 214.311 95.4311C214.036 95.453 213.811 95.5134 213.636 95.6122C213.46 95.7109 213.328 95.8591 213.241 96.0566C213.164 96.2541 213.125 96.5284 213.125 96.8796C213.125 97.2965 213.169 97.6202 213.257 97.8507C213.345 98.0811 213.477 98.2512 213.652 98.3609C213.828 98.4707 214.053 98.542 214.327 98.5749C214.601 98.5969 214.925 98.6078 215.298 98.6078ZM219.248 99.5625H217.948V98.6737L217.915 98.6408C217.795 98.8931 217.624 99.0907 217.405 99.2333C217.196 99.365 216.966 99.4637 216.714 99.5296C216.461 99.5954 216.192 99.6338 215.907 99.6448C215.622 99.6558 215.342 99.6613 215.068 99.6613C214.585 99.6613 214.14 99.6283 213.734 99.5625C213.328 99.5076 212.977 99.3869 212.681 99.2004C212.396 99.0138 212.171 98.7505 212.006 98.4103C211.853 98.0592 211.776 97.6038 211.776 97.0442C211.776 96.4516 211.847 95.9743 211.99 95.6122C212.143 95.25 212.363 94.9757 212.648 94.7892C212.944 94.6026 213.301 94.4819 213.718 94.4271C214.135 94.3612 214.612 94.3283 215.15 94.3283C215.358 94.3283 215.611 94.3393 215.907 94.3612C216.203 94.3722 216.489 94.4106 216.763 94.4764C217.037 94.5313 217.279 94.6191 217.487 94.7398C217.696 94.8495 217.822 95.0031 217.866 95.2007H217.948V93.6041C217.948 93.209 217.893 92.8963 217.784 92.6659C217.685 92.4354 217.537 92.2653 217.339 92.1556C217.142 92.0349 216.9 91.9581 216.615 91.9252C216.33 91.8923 216.006 91.8758 215.644 91.8758C215.391 91.8758 215.128 91.8813 214.854 91.8923C214.59 91.9032 214.349 91.9471 214.129 92.0239C213.91 92.1007 213.729 92.2214 213.586 92.386C213.455 92.5397 213.389 92.7646 213.389 93.0609V93.3572H212.039V93.1761C212.039 92.6165 212.127 92.183 212.302 91.8758C212.489 91.5576 212.736 91.3216 213.043 91.168C213.361 91.0034 213.729 90.9047 214.146 90.8717C214.563 90.8388 215.013 90.8224 215.496 90.8224C216.033 90.8224 216.533 90.8498 216.993 90.9047C217.454 90.9486 217.849 91.0693 218.179 91.2668C218.519 91.4533 218.782 91.7386 218.969 92.1227C219.155 92.4958 219.248 93.0115 219.248 93.6699V99.5625ZM224.916 98.6078C225.541 98.6078 226.024 98.5255 226.364 98.3609C226.704 98.1854 226.951 97.9494 227.105 97.6532C227.259 97.3569 227.346 97.0058 227.368 96.5997C227.401 96.1828 227.418 95.7329 227.418 95.25C227.418 94.6465 227.396 94.1363 227.352 93.7193C227.308 93.2913 227.204 92.9402 227.039 92.6659C226.874 92.3915 226.622 92.194 226.282 92.0733C225.953 91.9416 225.497 91.8758 224.916 91.8758C224.312 91.8758 223.851 91.9471 223.533 92.0898C223.215 92.2214 222.979 92.4299 222.825 92.7152C222.683 92.9896 222.6 93.3407 222.578 93.7687C222.557 94.1856 222.546 94.6794 222.546 95.25C222.546 95.7658 222.551 96.2321 222.562 96.6491C222.573 97.0661 222.644 97.4227 222.776 97.719C222.919 98.0043 223.155 98.2238 223.484 98.3774C223.813 98.531 224.29 98.6078 224.916 98.6078ZM228.718 90.9211V100.583C228.718 101.165 228.619 101.636 228.422 101.999C228.224 102.361 227.95 102.646 227.599 102.854C227.259 103.063 226.858 103.206 226.397 103.282C225.936 103.359 225.442 103.398 224.916 103.398C224.411 103.398 223.939 103.365 223.5 103.299C223.072 103.244 222.699 103.118 222.381 102.92C222.074 102.734 221.832 102.454 221.657 102.081C221.492 101.708 221.426 101.208 221.459 100.583H222.76C222.76 101 222.809 101.324 222.908 101.554C223.006 101.796 223.144 101.971 223.319 102.081C223.506 102.202 223.731 102.273 223.994 102.295C224.268 102.328 224.576 102.344 224.916 102.344C225.3 102.344 225.645 102.328 225.953 102.295C226.26 102.262 226.518 102.18 226.726 102.048C226.946 101.927 227.116 101.741 227.237 101.488C227.357 101.247 227.418 100.912 227.418 100.484V98.4926H227.385C227.297 98.756 227.149 98.9645 226.94 99.1181C226.732 99.2717 226.496 99.3924 226.233 99.4802C225.98 99.557 225.706 99.6064 225.41 99.6283C225.124 99.6503 224.855 99.6613 224.603 99.6613C223.901 99.6613 223.33 99.5735 222.891 99.3979C222.452 99.2114 222.107 98.937 221.854 98.5749C221.602 98.2018 221.426 97.741 221.328 97.1923C221.24 96.6436 221.196 95.9962 221.196 95.25C221.196 94.5258 221.234 93.8894 221.311 93.3407C221.388 92.7921 221.547 92.3312 221.788 91.9581C222.03 91.585 222.37 91.3052 222.809 91.1186C223.259 90.9211 223.857 90.8224 224.603 90.8224C224.899 90.8224 225.185 90.8388 225.459 90.8717C225.744 90.8937 226.008 90.9486 226.249 91.0363C226.49 91.1241 226.704 91.2448 226.891 91.3985C227.088 91.5521 227.253 91.7606 227.385 92.0239L227.418 92.0075V90.9211H228.718ZM234.121 98.6078C234.45 98.6078 234.768 98.5969 235.075 98.5749C235.394 98.553 235.673 98.4926 235.915 98.3939C236.167 98.2951 236.365 98.136 236.507 97.9165C236.661 97.6971 236.738 97.3898 236.738 96.9948C236.738 96.5888 236.677 96.276 236.557 96.0566C236.436 95.8371 236.266 95.678 236.047 95.5792C235.827 95.4805 235.553 95.4256 235.224 95.4146C234.894 95.3927 234.527 95.3817 234.121 95.3817C233.737 95.3817 233.407 95.3982 233.133 95.4311C232.859 95.453 232.634 95.5134 232.458 95.6122C232.283 95.7109 232.151 95.8591 232.063 96.0566C231.986 96.2541 231.948 96.5284 231.948 96.8796C231.948 97.2965 231.992 97.6202 232.08 97.8507C232.168 98.0811 232.299 98.2512 232.475 98.3609C232.65 98.4707 232.875 98.542 233.15 98.5749C233.424 98.5969 233.748 98.6078 234.121 98.6078ZM238.071 99.5625H236.771V98.6737L236.738 98.6408C236.617 98.8931 236.447 99.0907 236.228 99.2333C236.019 99.365 235.789 99.4637 235.536 99.5296C235.284 99.5954 235.015 99.6338 234.73 99.6448C234.444 99.6558 234.165 99.6613 233.89 99.6613C233.407 99.6613 232.963 99.6283 232.557 99.5625C232.151 99.5076 231.8 99.3869 231.504 99.2004C231.218 99.0138 230.993 98.7505 230.829 98.4103C230.675 98.0592 230.598 97.6038 230.598 97.0442C230.598 96.4516 230.67 95.9743 230.812 95.6122C230.966 95.25 231.185 94.9757 231.471 94.7892C231.767 94.6026 232.124 94.4819 232.541 94.4271C232.958 94.3612 233.435 94.3283 233.973 94.3283C234.181 94.3283 234.433 94.3393 234.73 94.3612C235.026 94.3722 235.311 94.4106 235.586 94.4764C235.86 94.5313 236.101 94.6191 236.31 94.7398C236.518 94.8495 236.645 95.0031 236.688 95.2007H236.771V93.6041C236.771 93.209 236.716 92.8963 236.606 92.6659C236.507 92.4354 236.359 92.2653 236.162 92.1556C235.964 92.0349 235.723 91.9581 235.438 91.9252C235.152 91.8923 234.829 91.8758 234.466 91.8758C234.214 91.8758 233.951 91.8813 233.676 91.8923C233.413 91.9032 233.172 91.9471 232.952 92.0239C232.733 92.1007 232.552 92.2214 232.409 92.386C232.277 92.5397 232.211 92.7646 232.211 93.0609V93.3572H230.862V93.1761C230.862 92.6165 230.949 92.183 231.125 91.8758C231.312 91.5576 231.559 91.3216 231.866 91.168C232.184 91.0034 232.552 90.9047 232.969 90.8717C233.386 90.8388 233.835 90.8224 234.318 90.8224C234.856 90.8224 235.355 90.8498 235.816 90.9047C236.277 90.9486 236.672 91.0693 237.001 91.2668C237.341 91.4533 237.605 91.7386 237.791 92.1227C237.978 92.4958 238.071 93.0115 238.071 93.6699V99.5625ZM246.257 90.9211V92.1227L241.105 98.5091H246.257V99.5625H239.591V98.3609L244.742 91.9746H240.018V90.9211H246.257ZM249.073 90.9211V99.5625H247.773V90.9211H249.073ZM249.073 87.2177V88.6497H247.773V87.2177H249.073ZM252.626 90.9211V91.9746H252.659C252.757 91.7112 252.906 91.5082 253.103 91.3655C253.301 91.2119 253.52 91.0967 253.761 91.0199C254.014 90.9321 254.272 90.8772 254.535 90.8553C254.809 90.8333 255.073 90.8224 255.325 90.8224C255.885 90.8224 256.368 90.8663 256.774 90.954C257.191 91.0418 257.531 91.2009 257.794 91.4314C258.068 91.6508 258.271 91.9526 258.403 92.3367C258.535 92.7207 258.595 93.2145 258.584 93.818V99.5625H257.284V93.7193C257.284 93.3243 257.245 93.006 257.169 92.7646C257.092 92.5232 256.966 92.3367 256.79 92.205C256.625 92.0733 256.411 91.9855 256.148 91.9416C255.885 91.8977 255.572 91.8758 255.21 91.8758C254.683 91.8758 254.25 91.9197 253.91 92.0075C253.569 92.0953 253.306 92.2434 253.12 92.4519C252.933 92.6604 252.801 92.9347 252.724 93.2749C252.659 93.615 252.626 94.032 252.626 94.5258V99.5625H251.325V90.9211H252.626ZM270.02 98.6078C270.525 98.6078 270.931 98.5585 271.239 98.4597C271.557 98.3609 271.804 98.1854 271.979 97.933C272.155 97.6806 272.27 97.3404 272.325 96.9125C272.391 96.4736 272.424 95.9194 272.424 95.25C272.424 94.6575 272.396 94.1472 272.341 93.7193C272.297 93.2913 272.188 92.9457 272.012 92.6823C271.848 92.408 271.606 92.205 271.288 92.0733C270.97 91.9416 270.547 91.8758 270.02 91.8758C269.527 91.8758 269.121 91.9087 268.802 91.9746C268.484 92.0404 268.232 92.194 268.045 92.4354C267.87 92.6659 267.744 93.006 267.667 93.4559C267.601 93.8949 267.568 94.4929 267.568 95.25C267.568 95.9962 267.606 96.5943 267.683 97.0442C267.771 97.4831 267.908 97.8178 268.095 98.0482C268.281 98.2786 268.534 98.4323 268.852 98.5091C269.17 98.5749 269.56 98.6078 270.02 98.6078ZM272.424 99.5625V98.4762L272.391 98.4432C272.259 98.7066 272.094 98.9206 271.897 99.0852C271.71 99.2388 271.491 99.3595 271.239 99.4473C270.997 99.5351 270.739 99.5899 270.465 99.6119C270.191 99.6448 269.905 99.6613 269.609 99.6613C268.841 99.6613 268.232 99.557 267.782 99.3485C267.332 99.1291 266.992 98.8273 266.761 98.4432C266.531 98.0592 266.383 97.5983 266.317 97.0606C266.251 96.512 266.218 95.9084 266.218 95.25C266.218 94.6026 266.246 94.0101 266.301 93.4724C266.366 92.9237 266.515 92.4574 266.745 92.0733C266.975 91.6783 267.316 91.371 267.766 91.1516C268.215 90.9321 268.83 90.8224 269.609 90.8224C269.85 90.8224 270.114 90.8333 270.399 90.8553C270.684 90.8772 270.959 90.9321 271.222 91.0199C271.485 91.0967 271.721 91.2119 271.93 91.3655C272.138 91.5192 272.292 91.7277 272.391 91.991H272.424V87.2177H273.724V99.5625H272.424ZM281.957 96.9454H283.291V97.2581C283.291 97.8287 283.186 98.2786 282.978 98.6078C282.78 98.9261 282.512 99.162 282.171 99.3156C281.831 99.4692 281.436 99.5625 280.986 99.5954C280.547 99.6393 280.086 99.6613 279.604 99.6613C278.759 99.6613 278.078 99.5899 277.563 99.4473C277.058 99.2937 276.668 99.0468 276.394 98.7066C276.12 98.3555 275.939 97.9001 275.851 97.3404C275.763 96.7698 275.719 96.073 275.719 95.25C275.719 94.3502 275.774 93.615 275.884 93.0444C276.004 92.4738 276.207 92.0239 276.493 91.6947C276.789 91.3655 277.184 91.1406 277.678 91.0199C278.183 90.8882 278.825 90.8224 279.604 90.8224C280.306 90.8224 280.893 90.8717 281.365 90.9705C281.837 91.0693 282.215 91.2613 282.501 91.5466C282.786 91.8209 282.989 92.2105 283.11 92.7152C283.23 93.209 283.291 93.8565 283.291 94.6575V95.5299H277.069C277.069 96.2102 277.091 96.7534 277.135 97.1594C277.179 97.5654 277.283 97.8781 277.447 98.0976C277.623 98.3061 277.881 98.4432 278.221 98.5091C278.561 98.5749 279.022 98.6078 279.604 98.6078C280.043 98.6078 280.41 98.5969 280.706 98.5749C281.014 98.553 281.261 98.4981 281.447 98.4103C281.634 98.3116 281.765 98.1744 281.842 97.9988C281.919 97.8233 281.957 97.5818 281.957 97.2746V96.9454ZM277.069 94.4764H281.941C281.919 93.8619 281.875 93.3846 281.809 93.0444C281.754 92.6933 281.645 92.4299 281.48 92.2544C281.315 92.0788 281.085 91.9746 280.789 91.9416C280.493 91.8977 280.097 91.8758 279.604 91.8758C279.011 91.8758 278.55 91.9197 278.221 92.0075C277.903 92.0843 277.661 92.2269 277.497 92.4354C277.332 92.6329 277.222 92.9018 277.168 93.242C277.124 93.5711 277.091 93.9826 277.069 94.4764ZM285.125 90.9211H286.392L286.326 91.991L286.359 92.0239C286.469 91.7825 286.612 91.585 286.787 91.4314C286.974 91.2778 287.171 91.1571 287.38 91.0693C287.599 90.9815 287.83 90.9211 288.071 90.8882C288.323 90.8443 288.57 90.8224 288.812 90.8224C289.646 90.8224 290.255 91.0254 290.639 91.4314C291.023 91.8374 291.215 92.4464 291.215 93.2584V93.8839H289.98V93.3078C289.98 92.7701 289.876 92.397 289.668 92.1885C289.459 91.98 289.081 91.8758 288.532 91.8758C288.126 91.8758 287.786 91.9252 287.511 92.0239C287.237 92.1227 287.018 92.2708 286.853 92.4683C286.688 92.6549 286.573 92.8908 286.507 93.1761C286.442 93.4614 286.414 93.7961 286.425 94.1802V99.5625H285.125V90.9211ZM299.2 88.4522V92.6494H305.454V93.8016H299.2V98.328H305.734V99.5625H297.801V87.2177H305.734V88.4522H299.2ZM315.899 87.2177H317.298V96.106C317.298 96.9289 317.178 97.5818 316.936 98.0647C316.706 98.5365 316.377 98.8931 315.949 99.1345C315.521 99.365 315.005 99.5076 314.401 99.5625C313.798 99.6283 313.134 99.6613 312.41 99.6613C311.729 99.6613 311.093 99.6393 310.5 99.5954C309.908 99.5515 309.392 99.4198 308.953 99.2004C308.514 98.9699 308.163 98.6188 307.9 98.147C307.647 97.6641 307.521 96.9838 307.521 96.106V87.2177H308.92V96.106C308.92 96.6107 308.959 97.0167 309.036 97.324C309.123 97.6202 309.288 97.8507 309.529 98.0153C309.782 98.1799 310.133 98.2896 310.583 98.3445C311.044 98.3993 311.653 98.4268 312.41 98.4268C313.035 98.4268 313.567 98.4158 314.006 98.3939C314.445 98.3609 314.802 98.2732 315.076 98.1305C315.362 97.9879 315.57 97.7629 315.702 97.4557C315.833 97.1374 315.899 96.6875 315.899 96.106V87.2177ZM321.007 94.6246V99.5625H319.608V87.2177H325.303C325.972 87.2177 326.548 87.2725 327.031 87.3823C327.514 87.481 327.909 87.6676 328.216 87.9419C328.534 88.2053 328.765 88.5674 328.907 89.0283C329.061 89.4891 329.138 90.0707 329.138 90.773C329.138 91.2009 329.116 91.6015 329.072 91.9746C329.039 92.3476 328.946 92.6768 328.792 92.9621C328.65 93.2474 328.436 93.4834 328.15 93.6699C327.865 93.8455 327.475 93.9662 326.982 94.032V94.0649C327.673 94.1198 328.178 94.3393 328.496 94.7233C328.814 95.0964 328.973 95.6176 328.973 96.287V99.5625H327.574V96.9454C327.574 96.5504 327.547 96.2102 327.492 95.9249C327.437 95.6286 327.333 95.3872 327.179 95.2007C327.026 95.0031 326.812 94.8605 326.537 94.7727C326.274 94.674 325.928 94.6246 325.5 94.6246H321.007ZM321.007 93.3901H325.319C325.857 93.3791 326.285 93.3243 326.603 93.2255C326.921 93.1267 327.163 92.9731 327.327 92.7646C327.503 92.5452 327.613 92.2653 327.657 91.9252C327.711 91.574 327.739 91.1406 327.739 90.6249C327.739 90.2298 327.717 89.8951 327.673 89.6208C327.629 89.3465 327.525 89.1215 327.36 88.946C327.196 88.7704 326.949 88.6442 326.62 88.5674C326.301 88.4906 325.868 88.4522 325.319 88.4522H321.007V93.3901ZM334.704 87.1189H336.367C337.135 87.1299 337.777 87.2067 338.292 87.3494C338.808 87.492 339.22 87.7279 339.527 88.0571C339.834 88.3754 340.054 88.7978 340.185 89.3245C340.317 89.8512 340.383 90.4987 340.383 91.2668V95.6615C340.383 96.3858 340.311 97.0058 340.169 97.5215C340.026 98.0263 339.796 98.4378 339.477 98.756C339.17 99.0742 338.759 99.3046 338.243 99.4473C337.727 99.5899 337.102 99.6613 336.367 99.6613H334.704C333.958 99.6613 333.327 99.5899 332.811 99.4473C332.306 99.3046 331.895 99.0742 331.577 98.756C331.27 98.4378 331.045 98.0263 330.902 97.5215C330.759 97.0058 330.688 96.3858 330.688 95.6615V91.2668C330.688 90.4987 330.754 89.8512 330.885 89.3245C331.017 88.7978 331.237 88.3754 331.544 88.0571C331.851 87.7279 332.263 87.492 332.778 87.3494C333.294 87.2067 333.936 87.1299 334.704 87.1189ZM336.367 88.3534H334.704C334.188 88.3534 333.76 88.3918 333.42 88.4686C333.08 88.5454 332.811 88.6936 332.614 88.913C332.416 89.1215 332.279 89.4178 332.202 89.8019C332.125 90.175 332.087 90.6633 332.087 91.2668V95.6615C332.087 96.276 332.136 96.7643 332.235 97.1265C332.345 97.4886 332.504 97.7684 332.712 97.9659C332.932 98.1524 333.206 98.2786 333.535 98.3445C333.865 98.3993 334.254 98.4268 334.704 98.4268H336.367C336.816 98.4268 337.206 98.3993 337.535 98.3445C337.864 98.2786 338.133 98.1524 338.342 97.9659C338.561 97.7684 338.72 97.4886 338.819 97.1265C338.929 96.7643 338.984 96.276 338.984 95.6615V91.2668C338.984 90.6633 338.945 90.175 338.868 89.8019C338.792 89.4178 338.654 89.1215 338.457 88.913C338.259 88.6936 337.991 88.5454 337.65 88.4686C337.31 88.3918 336.882 88.3534 336.367 88.3534ZM343.459 93.8345V98.328H347.887C348.26 98.328 348.589 98.3116 348.874 98.2786C349.16 98.2347 349.396 98.1415 349.582 97.9988C349.769 97.8562 349.906 97.6477 349.994 97.3734C350.092 97.099 350.142 96.7259 350.142 96.2541C350.142 95.8481 350.12 95.4915 350.076 95.1842C350.032 94.877 349.933 94.6246 349.78 94.4271C349.637 94.2186 349.428 94.0649 349.154 93.9662C348.88 93.8674 348.512 93.8235 348.051 93.8345H343.459ZM348.627 99.5625H342.06V87.2177H348.315C348.896 87.2177 349.368 87.289 349.73 87.4317C350.103 87.5633 350.394 87.7663 350.603 88.0407C350.822 88.315 350.97 88.6552 351.047 89.0612C351.135 89.4672 351.179 89.939 351.179 90.4767C351.179 90.8059 351.157 91.1077 351.113 91.382C351.08 91.6454 351.003 91.8868 350.882 92.1062C350.773 92.3257 350.614 92.5177 350.405 92.6823C350.208 92.8359 349.95 92.9676 349.631 93.0774V93.1103C350.037 93.1871 350.367 93.3133 350.619 93.4889C350.871 93.6644 351.063 93.8839 351.195 94.1472C351.338 94.4106 351.431 94.7124 351.475 95.0525C351.519 95.3817 351.541 95.7384 351.541 96.1224C351.541 97.2307 351.316 98.0811 350.866 98.6737C350.416 99.2662 349.67 99.5625 348.627 99.5625ZM343.459 88.4522V92.6H347.525C347.942 92.6 348.293 92.5726 348.578 92.5177C348.874 92.4519 349.11 92.3367 349.286 92.1721C349.461 92.0075 349.588 91.777 349.664 91.4808C349.741 91.1735 349.78 90.7785 349.78 90.2957C349.78 89.8787 349.736 89.5495 349.648 89.3081C349.571 89.0667 349.445 88.8856 349.269 88.7649C349.105 88.6332 348.885 88.5509 348.611 88.518C348.348 88.4741 348.035 88.4522 347.673 88.4522H343.459ZM361.241 96.9454H355.003L354.048 99.5625H352.583L357.077 87.2177H359.052L363.661 99.5625H362.212L361.241 96.9454ZM360.846 95.7932L358.097 88.3699L355.381 95.7932H360.846ZM373.315 87.2177H374.715V96.106C374.715 96.9289 374.594 97.5818 374.352 98.0647C374.122 98.5365 373.793 98.8931 373.365 99.1345C372.937 99.365 372.421 99.5076 371.818 99.5625C371.214 99.6283 370.55 99.6613 369.826 99.6613C369.146 99.6613 368.509 99.6393 367.917 99.5954C367.324 99.5515 366.808 99.4198 366.369 99.2004C365.931 98.9699 365.579 98.6188 365.316 98.147C365.064 97.6641 364.937 96.9838 364.937 96.106V87.2177H366.337V96.106C366.337 96.6107 366.375 97.0167 366.452 97.324C366.54 97.6202 366.704 97.8507 366.946 98.0153C367.198 98.1799 367.549 98.2896 367.999 98.3445C368.46 98.3993 369.069 98.4268 369.826 98.4268C370.451 98.4268 370.984 98.4158 371.423 98.3939C371.862 98.3609 372.218 98.2732 372.492 98.1305C372.778 97.9879 372.986 97.7629 373.118 97.4557C373.25 97.1374 373.315 96.6875 373.315 96.106V87.2177ZM381.007 93.8674C380.393 93.8235 379.811 93.7851 379.262 93.7522C378.725 93.7193 378.247 93.615 377.83 93.4395C377.413 93.2529 377.084 92.9567 376.843 92.5506C376.601 92.1337 376.481 91.5192 376.481 90.7072C376.481 89.8842 376.574 89.2367 376.761 88.7649C376.958 88.2821 377.243 87.92 377.616 87.6786C378.001 87.4371 378.478 87.2835 379.048 87.2177C379.619 87.1518 380.283 87.1189 381.04 87.1189C381.709 87.1189 382.324 87.1464 382.884 87.2012C383.443 87.2451 383.921 87.3768 384.316 87.5963C384.711 87.8157 385.012 88.1614 385.221 88.6332C385.429 89.1051 385.517 89.758 385.484 90.5919H384.085C384.063 90.0542 384.014 89.6373 383.937 89.341C383.86 89.0337 383.712 88.8088 383.493 88.6661C383.273 88.5235 382.966 88.4357 382.571 88.4028C382.176 88.3699 381.649 88.3534 380.991 88.3534C380.31 88.3534 379.762 88.3808 379.345 88.4357C378.939 88.4906 378.626 88.5948 378.407 88.7484C378.187 88.8911 378.044 89.0996 377.979 89.3739C377.913 89.6373 377.88 89.9829 377.88 90.4109C377.88 91.0034 377.951 91.4478 378.094 91.7441C378.236 92.0404 378.445 92.2544 378.719 92.386C379.005 92.5068 379.361 92.5781 379.789 92.6C380.217 92.611 380.722 92.622 381.303 92.6329C382.039 92.6768 382.681 92.7262 383.229 92.7811C383.778 92.825 384.233 92.9512 384.595 93.1597C384.969 93.3681 385.248 93.6973 385.435 94.1472C385.621 94.5862 385.715 95.2226 385.715 96.0566C385.715 96.9344 385.61 97.6148 385.402 98.0976C385.204 98.5804 384.903 98.937 384.497 99.1675C384.102 99.3979 383.608 99.5351 383.015 99.579C382.423 99.6338 381.737 99.6613 380.958 99.6613C380.168 99.6613 379.476 99.6229 378.884 99.546C378.291 99.4692 377.803 99.2991 377.419 99.0358C377.035 98.7615 376.761 98.3609 376.596 97.8342C376.431 97.3075 376.382 96.5997 376.448 95.7109H377.847C377.836 96.3913 377.869 96.918 377.946 97.2911C378.022 97.6532 378.176 97.922 378.407 98.0976C378.637 98.2622 378.955 98.3609 379.361 98.3939C379.767 98.4158 380.299 98.4268 380.958 98.4268C381.616 98.4268 382.159 98.4158 382.587 98.3939C383.026 98.3609 383.372 98.2732 383.624 98.1305C383.877 97.9769 384.052 97.7355 384.151 97.4063C384.261 97.0771 384.316 96.6107 384.316 96.0072C384.316 95.4146 384.25 94.9812 384.118 94.7069C383.986 94.4216 383.783 94.2295 383.509 94.1308C383.235 94.021 382.889 93.9607 382.472 93.9497C382.055 93.9388 381.567 93.9113 381.007 93.8674ZM391.705 88.4522V99.5625H390.305V88.4522H386.306V87.2177H395.704V88.4522H391.705ZM400.463 87.1189H402.125C402.893 87.1299 403.535 87.2067 404.051 87.3494C404.567 87.492 404.978 87.7279 405.285 88.0571C405.593 88.3754 405.812 88.7978 405.944 89.3245C406.076 89.8512 406.141 90.4987 406.141 91.2668V95.6615C406.141 96.3858 406.07 97.0058 405.927 97.5215C405.785 98.0263 405.554 98.4378 405.236 98.756C404.929 99.0742 404.517 99.3046 404.002 99.4473C403.486 99.5899 402.86 99.6613 402.125 99.6613H400.463C399.717 99.6613 399.086 99.5899 398.57 99.4473C398.065 99.3046 397.654 99.0742 397.335 98.756C397.028 98.4378 396.803 98.0263 396.661 97.5215C396.518 97.0058 396.447 96.3858 396.447 95.6615V91.2668C396.447 90.4987 396.512 89.8512 396.644 89.3245C396.776 88.7978 396.995 88.3754 397.302 88.0571C397.61 87.7279 398.021 87.492 398.537 87.3494C399.053 87.2067 399.695 87.1299 400.463 87.1189ZM402.125 88.3534H400.463C399.947 88.3534 399.519 88.3918 399.179 88.4686C398.839 88.5454 398.57 88.6936 398.372 88.913C398.175 89.1215 398.038 89.4178 397.961 89.8019C397.884 90.175 397.846 90.6633 397.846 91.2668V95.6615C397.846 96.276 397.895 96.7643 397.994 97.1265C398.104 97.4886 398.263 97.7684 398.471 97.9659C398.691 98.1524 398.965 98.2786 399.294 98.3445C399.623 98.3993 400.013 98.4268 400.463 98.4268H402.125C402.575 98.4268 402.965 98.3993 403.294 98.3445C403.623 98.2786 403.892 98.1524 404.1 97.9659C404.32 97.7684 404.479 97.4886 404.578 97.1265C404.687 96.7643 404.742 96.276 404.742 95.6615V91.2668C404.742 90.6633 404.704 90.175 404.627 89.8019C404.55 89.4178 404.413 89.1215 404.216 88.913C404.018 88.6936 403.749 88.5454 403.409 88.4686C403.069 88.3918 402.641 88.3534 402.125 88.3534ZM409.284 88.4522V92.7646H415.291V93.9168H409.284V99.5625H407.884V87.2177H415.456V88.4522H409.284ZM418.317 88.4522V92.7646H424.325V93.9168H418.317V99.5625H416.918V87.2177H424.49V88.4522H418.317Z" fill="#F6F1FF"/>
<path d="M2.27453 51.321C2.27453 41.1182 9.16309 33.9696 19.106 33.9696C28.659 33.9696 33.858 40.9232 33.858 49.6964C33.858 50.1513 33.858 50.8661 33.793 51.451L33.663 52.4908H10.7228C11.2427 58.5345 15.6617 61.7189 20.6657 61.7189C23.4601 61.7189 25.7346 60.939 27.4893 59.9642C28.5291 59.4443 29.4389 58.8595 30.2837 58.2096L33.468 64.0584C32.4932 64.9032 31.2585 65.6181 29.8938 66.3329C27.5543 67.5676 24.24 68.6724 20.0808 68.6724C9.09811 68.6724 2.27453 60.6791 2.27453 51.321ZM10.9177 47.6168H25.3447C25.1498 43.0028 22.4853 40.3383 18.9111 40.3383C14.6869 40.3383 11.6976 43.1977 10.9177 47.6168ZM43.971 29.0957V21.7522H52.2892V29.0957H43.971ZM39.2269 67.8926V61.7189H44.0359V40.9232H38.902V34.7495H52.2892V61.7189H57.0332V67.8926H39.2269ZM61.9468 67.8926V61.7189H66.7558V42.3529C66.7558 41.3781 66.3009 40.9232 65.3261 40.9232H61.6219V34.7495H70.3301C73.2545 34.7495 74.6192 36.1142 74.6192 38.4537V39.9484C74.6192 40.2733 74.6192 40.6632 74.5542 40.9232C74.4892 41.1182 74.4892 41.2481 74.4892 41.3781H74.6192C74.9441 40.3383 78.5834 33.9696 86.8366 33.9696C93.9202 33.9696 97.9493 37.7389 97.9493 46.577V61.7189H102.758V67.8926H89.761V48.2667C89.761 44.1725 88.6563 41.5081 84.4971 41.5081C78.5184 41.5081 75.0091 47.2269 75.0091 53.0107V61.7189H79.7531V67.8926H61.9468ZM109.404 67.8926V27.9259H104.335V21.7522H117.657V36.1142C117.657 36.894 117.657 37.6089 117.593 38.1288C117.528 38.4537 117.528 38.7137 117.528 38.9086H117.657C118.242 37.9988 119.022 37.154 119.997 36.4391C121.622 35.2044 124.156 33.9696 127.6 33.9696C136.634 33.9696 142.352 41.0532 142.352 51.321C142.352 61.8488 135.919 68.6724 127.081 68.6724C123.441 68.6724 120.972 67.3077 119.412 66.008C118.502 65.2281 117.787 64.3833 117.203 63.4085H117.073C117.073 63.6035 117.073 63.8634 117.138 64.1234C117.203 64.5783 117.203 65.1631 117.203 65.878V67.8926H109.404ZM117.463 51.516C117.463 56.6499 120.127 61.7189 125.651 61.7189C130.135 61.7189 134.034 58.0146 134.034 51.451C134.034 45.1473 130.72 41.0532 125.781 41.0532C121.427 41.0532 117.463 44.2375 117.463 51.516ZM149.57 57.3648V27.9259H144.436V21.7522H157.759V56.8449C157.759 59.8992 158.344 61.3939 161.138 61.3939C161.593 61.3939 161.983 61.3289 162.243 61.3289H162.698V67.9576L161.788 68.0875C161.268 68.1525 160.553 68.1525 159.708 68.1525C154.444 68.1525 149.57 66.3979 149.57 57.3648ZM172.421 29.0957V21.7522H180.739V29.0957H172.421ZM167.677 67.8926V61.7189H172.486V40.9232H167.352V34.7495H180.739V61.7189H185.483V67.8926H167.677ZM189.617 51.386C189.617 41.5081 197.22 33.9696 207.423 33.9696C212.947 33.9696 221.005 36.0492 221.005 41.898V46.447H213.857V44.2375C213.857 41.963 210.477 40.9882 207.683 40.9882C201.639 40.9882 197.935 45.1473 197.935 51.1911C197.935 58.0146 202.679 61.7189 208.333 61.7189C213.012 61.7189 216.846 59.1194 218.666 57.6897L221.59 63.5385C219.316 65.683 214.247 68.6724 207.878 68.6724C198.195 68.6724 189.617 62.0438 189.617 51.386ZM225.529 67.8926V61.7189H230.338V27.9259H225.205V21.7522H238.592V47.2919H242.946L248.34 40.9232H244.505V34.7495H260.427V40.9232H256.138L248.925 49.4364V49.5664C248.99 49.5664 250.159 50.0863 251.459 52.3608L256.138 60.5491C256.723 61.5239 257.308 61.7189 258.868 61.7189H260.752V67.8926H254.578C251.784 67.8926 250.679 67.4377 249.379 65.0332L243.401 54.5704C242.686 53.3356 241.776 53.3356 240.541 53.3356H238.592V61.7189H242.166V67.8926H225.529Z" fill="#F6F1FF"/>
</svg>
