<svg width="22" height="22" viewBox="0 0 22 22" fill="none" xmlns="http://www.w3.org/2000/svg">
<path fill-rule="evenodd" clip-rule="evenodd" d="M19.8169 0.000420658L7.56815 0.000421193C6.97486 0.000421219 6.58954 0.480011 6.58954 1.07291L6.58954 1.10371C6.58954 1.70871 6.96167 2.20042 7.56708 2.20042L16.9772 2.20042C17.4682 2.20042 17.7123 2.79442 17.3656 3.14092L0.318789 20.1469C-0.106097 20.5704 -0.106071 21.259 0.317715 21.6825C0.742601 22.106 1.43009 22.106 1.85277 21.6814L18.8684 4.63252C19.2151 4.28492 19.7981 4.53022 19.7981 5.02082L19.7981 14.3202C19.7981 14.9186 20.3025 15.4004 20.9024 15.4004L20.933 15.4004C21.533 15.4004 21.9997 14.9186 21.9997 14.3202L21.9997 2.20482C21.9997 0.989318 21.0332 0.000420605 19.8169 0.000420658Z" fill="#F6F1FF"/>
</svg>
